<?xml version="1.0" encoding="utf-8"?>
<!-- Generator: Adobe Illustrator 18.1.0, SVG Export Plug-In . SVG Version: 6.00 Build 0)  -->
<svg version="1.1" id="Layer_1" xmlns="http://www.w3.org/2000/svg" xmlns:xlink="http://www.w3.org/1999/xlink" x="0px" y="0px"
	 viewBox="0 0 57 81.4" enable-background="new 0 0 57 81.4" xml:space="preserve">
<ellipse fill="#FFFFFF" cx="29" cy="41.8" rx="23" ry="31.9"/>
<g>
	<g>
		<path fill="#381D18" d="M18.5,39.5c-2.4,4.5,4.5,5.6,7.9,2.6c1.5-1.3,2.6,2.1,4.4,2.2c2.4,0.2,3.7-1.5,3.2-3
			c0.4,1.3,1.8,1.4,2.9,0.9c0.5-0.2,1.7-1.1,1.6-2.7c-0.4,0.5-1.3,0.7-2,0.4c-0.9-0.4-1.2-1.3-0.6-2.1c0.7-0.9,2.6-2.2,0.7-3.1
			c0.4,0.2,0.8,0.2,1.2,0c1.5-0.7,0.9-3.9-0.8-2.9c1.2,0,0,1.8-0.6,0.4c-0.4-0.9,0.5-1.3,1-1.9c0.5-0.7,0.7-1.5,0.6-2.4
			c-0.2-2.4-2.4-3.9-3.7-5.7c-1.4-2-3.3-3.3-5.8-2.4c-0.6,0.2-1.1,0.7-1.6,1.2c-0.1-0.4-0.4-0.8-0.8-1.1c0,0.4-0.1,0.7-0.1,1.1
			c-1.4-0.8-3.5-0.5-4.7,0.3c-1.6,1-1.5,2.6-2.1,4.2c-0.6,1.4-2.5,3.1-2.4,4.8c0.1,1,0.8,1.6,0.8,2.6c0,0.9-1,1.4-0.6,2.2
			c0.4,0.8,2.3,0.6,1.3,2.1c-0.9,1.4-2.5-0.2-1.5-0.5c-1.2-0.6-1.6,0.9-1.5,1.8C15.8,39.7,17.6,39.7,18.5,39.5z"/>
	</g>
	<defs>
		<filter id="Adobe_OpacityMaskFilter" filterUnits="userSpaceOnUse" x="19.1" y="61.7" width="19.2" height="2.5">
			<feColorMatrix  type="matrix" values="1 0 0 0 0  0 1 0 0 0  0 0 1 0 0  0 0 0 1 0"/>
		</filter>
	</defs>
	<mask maskUnits="userSpaceOnUse" x="19.1" y="61.7" width="19.2" height="2.5" id="SVGID_1_">
		<g filter="url(#Adobe_OpacityMaskFilter)">
			<defs>
				<filter id="Adobe_OpacityMaskFilter_1_" filterUnits="userSpaceOnUse" x="18.5" y="61.4" width="20.4" height="3">
					<feFlood  style="flood-color:white;flood-opacity:1" result="back"/>
					<feBlend  in="SourceGraphic" in2="back" mode="normal"/>
				</filter>
			</defs>
			<mask maskUnits="userSpaceOnUse" x="18.5" y="61.4" width="20.4" height="3" id="SVGID_1_">
				<g filter="url(#Adobe_OpacityMaskFilter_1_)">
				</g>
			</mask>
			
				<radialGradient id="SVGID_2_" cx="-1013.4749" cy="62009.7344" r="7.6521" gradientTransform="matrix(1.2017 0 0 0.1624 1246.6196 -10007.4248)" gradientUnits="userSpaceOnUse">
				<stop  offset="0" style="stop-color:#FFFFFF"/>
				<stop  offset="7.586616e-02" style="stop-color:#E0E0E0"/>
				<stop  offset="0.2561" style="stop-color:#9D9D9D"/>
				<stop  offset="0.4272" style="stop-color:#656565"/>
				<stop  offset="0.5843" style="stop-color:#393939"/>
				<stop  offset="0.7245" style="stop-color:#1A1A1A"/>
				<stop  offset="0.8428" style="stop-color:#070707"/>
				<stop  offset="0.9247" style="stop-color:#000000"/>
			</radialGradient>
			<ellipse mask="url(#SVGID_1_)" fill="url(#SVGID_2_)" cx="28.7" cy="63" rx="10.2" ry="1.5"/>
		</g>
	</mask>
	
		<radialGradient id="SVGID_3_" cx="-1032.6599" cy="62007.6953" r="8.0864" gradientTransform="matrix(1.1502 0 0 0.1329 1216.4922 -8177.8682)" gradientUnits="userSpaceOnUse">
		<stop  offset="0" style="stop-color:#000000"/>
		<stop  offset="0.9247" style="stop-color:#000000"/>
	</radialGradient>
	<ellipse opacity="0.2" fill="url(#SVGID_3_)" cx="28.7" cy="63" rx="9.6" ry="1.2"/>
	<g>
		<path fill="#1E1E29" d="M26.7,60.6c0.8,0.2,0.7,0.9,0.6,1.5c-0.2,1.1-1,2.1-1.9,2c-0.5,0-1-0.9-0.6-2.4
			C25,60.7,25.8,60.5,26.7,60.6z"/>
		<path fill="#1E1E29" d="M30.3,60.9c-0.7,0.4-0.5,1.1-0.2,1.6c0.5,1,1.7,1.7,2.6,1.5c0.5-0.2,0.5-1.2-0.3-2.5
			C31.9,60.5,31,60.5,30.3,60.9z"/>
		<g>
			<path fill="#FFC38F" d="M28.4,52.2c0,1.6-1.1,7.3-1.1,9c0,0.5-0.2,0.8-0.4,1c-0.6,0.7-1.6,0.8-1.9-0.1c-0.1-0.5,0-0.9,0.1-1.5
				c0.8-4.7,0.7-6.9,0.7-8.4L28.4,52.2z"/>
		</g>
		<g>
			<path fill="#FFC38F" d="M28.7,52.5c0.1,1.5,0.9,6.9,1.1,8.6c0.1,0.9,1.3,1.8,2.1,1.6c0.9-0.2,0.4-1.3,0.2-2.4
				c-0.9-4.5-0.8-6.5-0.9-8L28.7,52.5z"/>
		</g>
		
			<linearGradient id="SVGID_4_" gradientUnits="userSpaceOnUse" x1="2239.9612" y1="54.1012" x2="2239.9783" y2="55.704" gradientTransform="matrix(1 0 0 1 -2209.8066 0)">
			<stop  offset="0" style="stop-color:#770D0C"/>
			<stop  offset="0.1143" style="stop-color:#7A1211"/>
			<stop  offset="0.2416" style="stop-color:#811F1E"/>
			<stop  offset="0.3751" style="stop-color:#8E3534"/>
			<stop  offset="0.513" style="stop-color:#9F5453"/>
			<stop  offset="0.6543" style="stop-color:#B57C7C"/>
			<stop  offset="0.7984" style="stop-color:#D1ADAD"/>
			<stop  offset="0.9422" style="stop-color:#F1E6E6"/>
			<stop  offset="1" style="stop-color:#FFFFFF"/>
		</linearGradient>
		<path opacity="0.4" fill="url(#SVGID_4_)" d="M29.1,55.7l-0.2-1.2l2.3-0.3l0.1,1.5C31.4,55.7,30.2,55.2,29.1,55.7z"/>
		
			<linearGradient id="SVGID_5_" gradientUnits="userSpaceOnUse" x1="-2147.0056" y1="54.1375" x2="-2146.9888" y2="55.7362" gradientTransform="matrix(-1 0 0 1 -2120.0913 0)">
			<stop  offset="0" style="stop-color:#770D0C"/>
			<stop  offset="0.1143" style="stop-color:#7A1211"/>
			<stop  offset="0.2416" style="stop-color:#811F1E"/>
			<stop  offset="0.3751" style="stop-color:#8E3534"/>
			<stop  offset="0.513" style="stop-color:#9F5453"/>
			<stop  offset="0.6543" style="stop-color:#B57C7C"/>
			<stop  offset="0.7984" style="stop-color:#D1ADAD"/>
			<stop  offset="0.9422" style="stop-color:#F1E6E6"/>
			<stop  offset="1" style="stop-color:#FFFFFF"/>
		</linearGradient>
		<path opacity="0.4" fill="url(#SVGID_5_)" d="M27.9,55.7l0.2-1.2l-2.3-0.3l-0.1,1.5C25.7,55.7,26.8,55.2,27.9,55.7z"/>
		<path fill="#121219" d="M25.7,49.4c-1.1,2.1-0.3,3.9-0.5,5.3c0.2,0.1,1.6,0.2,3.5,0.2c1.9,0,2.9-0.2,3.1-0.4
			c-0.5-1.8,0.1-3.9-0.6-5.7C30.6,47.1,26.5,47.9,25.7,49.4z"/>
		<path fill="#1E1E29" d="M25.4,54.7c0,0-0.1-1.6,0.3-2.1c0.4-0.5,2-1.4,3-1.4c0.9,0,2,0.7,2.3,1.2c0.4,0.5,0.6,2.1,0.6,2.1
			S29.7,55.4,25.4,54.7z"/>
	</g>
	<g>
		<path fill="#FFC38F" d="M19.9,50.8c-0.1-0.2,0.5-0.3,0.7-0.3c-0.8-0.2-1.1,0.2-1.3,0.2c-0.2-0.1,0.1-0.6,0.1-0.6
			c-0.1,0-0.3,0.3-0.5,0.2c-0.1-0.1,0-0.4,0.1-0.5c0.5-0.8,1.4-0.9,2.8-0.5c0.8,0.2,0.4,1.4-0.3,1.7C21.1,51.2,20,50.9,19.9,50.8z"
			/>
		<g>
			<path fill="#1E1E29" d="M22.1,50.7l-0.4-1.5c1.6-0.4,1.9-1.9,2.2-4.1c0.2-1.4,0.3-2.6,1.3-3.1l0.7,1.4c-0.2,0.2-0.3,1.2-0.4,1.9
				C25.2,47.2,24.9,50,22.1,50.7z"/>
		</g>
	</g>
	<g>
		<path fill="#FFC38F" d="M40.7,47.9c0.5,0.1,0.7,0.1,0.7-0.2c0.1-0.6,0-1.3-0.3-1.4C40.6,46.2,39.9,47.8,40.7,47.9z"/>
		<path fill="#1E1E29" d="M30.7,43.2c0,0,0.2,5.9,3.8,7.3c4.2,1.6,6.3-1,6.5-1.5c0.4-0.8-1-1.8-1.6-1.2c-0.4,0.4-2.2,1.7-4.3,0.9
			c-2.6-1-2.2-5.6-3.4-6.1C30.6,42.1,30.7,43.2,30.7,43.2z"/>
		<g>
			
				<rect x="31.6" y="40.8" transform="matrix(-0.8767 -0.4811 0.4811 -0.8767 45.1426 104.4472)" fill="#313142" width="8.6" height="11.4"/>
			<path fill="#E8E8E8" d="M39.6,41.8c-0.3-0.2-0.1-0.6-0.1-0.9c0-0.5-0.5-0.7-0.9-0.4c-0.2,0.2-0.5,0.5-0.6,0.4
				c-0.2-0.1,0,0.4,0.6,0.8C39.2,42.1,39.9,42,39.6,41.8z M38.9,41.1c-0.1-0.1-0.2-0.2-0.1-0.3c0.1-0.1,0.2-0.2,0.3-0.1
				c0.1,0.1,0.2,0.2,0.1,0.3C39.2,41.1,39,41.2,38.9,41.1z"/>
			<path fill="#D9D9D9" d="M41.3,43.1c0.1-0.2,0-0.4-0.2-0.5L36.4,40c-0.2-0.1-0.4,0-0.5,0.2l-0.4,0.7c-0.1,0.2,0,0.4,0.2,0.5
				l4.7,2.6c0.2,0.1,0.4,0,0.5-0.2L41.3,43.1z"/>
			<g>
				
					<rect x="31.8" y="43.1" transform="matrix(0.8767 0.481 -0.481 0.8767 27.0673 -11.2945)" fill="#F5F5F5" width="7.5" height="8.1"/>
				
					<rect x="33.8" y="42.1" transform="matrix(0.8767 0.4811 -0.4811 0.8767 25.5971 -12.6745)" fill="#379BDB" width="7.5" height="2.9"/>
				
					<rect x="35.5" y="43.5" transform="matrix(-0.8767 -0.4811 0.4811 -0.8767 49.07 100.255)" fill="#8FCDFF" width="3.7" height="0.7"/>
				
					<rect x="33.3" y="45.4" transform="matrix(-0.8768 -0.4809 0.4809 -0.8768 43.6288 102.5047)" opacity="0.5" fill="#63605C" width="3.2" height="0.6"/>
				
					<rect x="32.5" y="46.8" transform="matrix(-0.8766 -0.4812 0.4812 -0.8766 41.3807 104.8867)" opacity="0.5" fill="#63605C" width="3.2" height="0.6"/>
				
					<rect x="31.7" y="48.3" transform="matrix(-0.8767 -0.4811 0.4811 -0.8767 39.1586 107.2674)" opacity="0.5" fill="#63605C" width="3.2" height="0.6"/>
				<path fill="#48C2B1" d="M38,46.9c-0.1,0-0.3,0.1-0.4,0c-0.2-0.1-0.2-0.5-0.3-0.7c-0.2,0.3-0.3,0.9-0.1,1.2
					c0.2,0.5,1.1,0,1.5-0.2c0.2-0.1,0.5-0.3,0.6-0.5c-0.3-0.1-0.7-0.1-1.1,0.1C38.1,46.8,38,46.8,38,46.9z"/>
				<path fill="#48C2B1" d="M37.1,48.4c-0.1,0-0.3,0.1-0.4,0c-0.2-0.1-0.2-0.5-0.3-0.7c-0.2,0.3-0.3,0.9-0.1,1.2
					c0.2,0.5,1.1,0,1.5-0.2c0.2-0.1,0.5-0.3,0.6-0.5c-0.3-0.1-0.7-0.1-1.1,0.1C37.3,48.3,37.2,48.3,37.1,48.4z"/>
				<path fill="#48C2B1" d="M36.3,49.9c-0.1,0-0.3,0.1-0.4,0c-0.2-0.1-0.2-0.5-0.3-0.7c-0.2,0.3-0.3,0.9-0.1,1.2
					c0.2,0.5,1.1,0,1.5-0.2c0.2-0.1,0.5-0.3,0.6-0.5c-0.3-0.1-0.7-0.1-1.1,0.1C36.5,49.8,36.4,49.8,36.3,49.9z"/>
			</g>
			<g>
				<path fill="#E8E8E8" d="M36,42.1c-0.1-0.2-0.1-0.4,0-0.6l0.3-0.6c0.1-0.2,0.4-0.3,0.7-0.2l3.2,1.7c0.1,0,0.1,0.1,0.2,0.1
					c0.1,0.2,0.1,0.4,0,0.6l-0.3,0.6C40,43.9,39.9,44,39.8,44c-0.1,0-0.3,0-0.4,0l-3.2-1.7C36.1,42.2,36.1,42.1,36,42.1z M40.1,42.8
					C40.1,42.8,40.1,42.7,40.1,42.8L36.9,41c-0.1-0.1-0.3,0-0.3,0.1l-0.3,0.6c-0.1,0.1,0,0.3,0.1,0.3l3.2,1.7c0.1,0,0.1,0,0.2,0
					c0.1,0,0.1-0.1,0.2-0.1l0.3-0.6C40.2,43,40.2,42.9,40.1,42.8z"/>
			</g>
			<g>
				<circle fill="#FFFFFF" cx="40.8" cy="43.1" r="0.2"/>
				<circle fill="#FFFFFF" cx="36.1" cy="40.6" r="0.2"/>
			</g>
			<path fill="#FFFFFF" d="M40.3,42.6c0.1-0.1,0-0.3-0.1-0.3l-3-1.6c-0.1-0.1-0.3,0-0.3,0.1L36.7,41c-0.1,0.1,0,0.3,0.1,0.3l3,1.6
				c0.1,0.1,0.3,0,0.3-0.1L40.3,42.6z"/>
		</g>
		<path fill="#FFC38F" d="M38.8,48.1c-0.7-1.8,2.5-1.5,2.6-0.4c0,0.4-0.1,0.8-0.3,1.1c-0.2,0.3-0.5,0.5-0.8,0.7
			c-0.8,0.5-1.5,0.2-0.8-0.7C39.2,48.7,38.9,48.4,38.8,48.1z"/>
	</g>
	<g>
		<path fill="#F5F5F5" d="M25.9,41.7c-1.2,1-0.9,2.8,0.4,4.1c1.8,1.8,2.2,2.8,2.2,2.8s3.4-4.5,2.7-6.2
			C30.4,40.3,27.1,40.7,25.9,41.7z"/>
		<g>
			<path fill="#1E1E29" d="M31.6,45.4c0.5-1.2,0.4-1.5,0.2-2.2c-0.3-1.5-0.7-0.7-0.8-0.3c-0.7,2.2-2.4,4.2-2.4,4.2s-2.3-2.3-2.9-4.2
				c-0.1-0.4,0-1.1-0.4-0.3c-0.6,1.4-0.1,2,0.2,3.1c0.4,1.3,0.2,2.9-0.7,5.4c0.5,0.3,3.6,0.2,3.9-1.5c0,1.6,3.4,1.7,3.4,1.5
				C31.5,49,30.6,47.8,31.6,45.4z"/>
		</g>
		<ellipse fill="#313142" cx="28.3" cy="47.6" rx="0.2" ry="0.2"/>
		<ellipse fill="#313142" cx="28.4" cy="49.4" rx="0.2" ry="0.2"/>
		<path fill="#121219" d="M31.7,43.2c-0.1,0-0.1,0.1-0.2,0.2c-0.1,0.2,0.1,0.5,0.2,0.7c0.1,0.2,0.1,0.6,0,0.8
			c-0.2,0.6-0.9,1.1-1.4,1.4c-0.5,0.3-1.1,0.5-1.6,0.9c0.4-0.6,1-0.9,1.3-1.5c0.2-0.4,0.3-0.7,0.4-1.1c0.1-0.4,0.4-0.8,0.5-1.3
			c0.1-0.3,0-0.9,0.4-0.8c0.2,0,0.6,0.5,0.5,0.7C31.9,43.1,31.8,43.1,31.7,43.2z"/>
		<path fill="#313142" d="M30.6,41.4c0.6,0.2,2.1,0.7,1.9,0.9c-0.2,0.3-1.1,0.7-1.2,0.9c0.2,0.1,0.4,0.2,0.5,0.3
			c0.2,0.2,0.7,0.4,0.4,0.6c-1.2,1.1-3.7,3.1-3.7,3c1-1.3,1.8-3.1,2.2-4.7c0.1-0.5-0.1-0.7-0.3-1.1C30.4,41.3,30.5,41.4,30.6,41.4z"
			/>
		<path fill="#121219" d="M25,43.3c0.3,0.2,0.2,0.5,0.1,0.8c-0.1,0.3,0,0.6,0.2,0.9c0.3,0.5,0.9,1,1.4,1.2c0.5,0.3,1.4,0.6,1.9,0.9
			c-0.5-0.5-1.3-1-1.6-1.5c-0.2-0.3-0.4-0.7-0.5-1c-0.2-0.4-0.5-0.8-0.6-1.2c-0.1-0.2-0.1-0.7-0.3-0.8c-0.2-0.2-0.6,0.1-0.8,0.3
			C24.4,43.1,24.7,43.1,25,43.3z"/>
		<path fill="#313142" d="M26.3,41.5c-0.1,0-2.3,0.5-2,0.9c0.2,0.3,1.1,0.7,1.2,0.9c-0.2,0.1-0.4,0.2-0.5,0.3
			c-0.2,0.2-0.7,0.4-0.4,0.6c1.2,1.1,4.1,3,4.1,3c-0.8-1-1.6-2.2-2.1-3.3C26.2,43.1,25.7,42.2,26.3,41.5z"/>
		
			<linearGradient id="SVGID_6_" gradientUnits="userSpaceOnUse" x1="2238.1558" y1="40.2901" x2="2238.1558" y2="42.559" gradientTransform="matrix(1 0 0 1 -2209.8066 0)">
			<stop  offset="0" style="stop-color:#EE996D"/>
			<stop  offset="0.3384" style="stop-color:#F7AD7C"/>
			<stop  offset="0.6924" style="stop-color:#FDBB86"/>
			<stop  offset="1" style="stop-color:#FFC08A"/>
		</linearGradient>
		<path fill="url(#SVGID_6_)" d="M26.4,42.6c0.6,0.9,1.2,1.8,2,2.7c0.7-0.6,1.9-2.4,2-2.8c0.3-0.8,0.1-0.9-0.3-1.1
			c-0.9-0.5,0.1-2.7-0.6-3.3c-0.5-0.4-1.4-0.5-2.1-0.2c-1.2,0.5,0,3.2-1.2,3.7C26,41.6,26,41.9,26.4,42.6z"/>
		<g>
			<ellipse fill="#FFF9F0" cx="30.4" cy="41.5" rx="0.2" ry="0.2"/>
			
				<ellipse transform="matrix(0.9997 2.292840e-02 -2.292840e-02 0.9997 0.9605 -0.5907)" fill="#FFF9F0" cx="26.2" cy="41.6" rx="0.2" ry="0.2"/>
			
				<ellipse transform="matrix(-0.9985 5.466777e-02 -5.466777e-02 -0.9985 55.5578 82.6974)" fill="#FFF9F0" cx="26.6" cy="42.1" rx="0.3" ry="0.3"/>
			
				<ellipse transform="matrix(-0.9986 5.287294e-02 -5.287294e-02 -0.9986 56.7206 83.4783)" fill="#FFF9F0" cx="27.3" cy="42.5" rx="0.3" ry="0.3"/>
			
				<ellipse transform="matrix(-0.9985 5.473538e-02 -5.473538e-02 -0.9985 58.3733 83.8753)" fill="#FFF9F0" cx="28" cy="42.7" rx="0.3" ry="0.3"/>
			
				<ellipse transform="matrix(-0.9986 5.355195e-02 -5.355195e-02 -0.9986 59.8804 83.9152)" fill="#FFF9F0" cx="28.8" cy="42.8" rx="0.3" ry="0.3"/>
			
				<ellipse transform="matrix(-0.9985 5.405023e-02 -5.405023e-02 -0.9985 62.6371 82.3095)" fill="#FFF9F0" cx="30.2" cy="42" rx="0.3" ry="0.3"/>
			
				<ellipse transform="matrix(-0.9985 5.408094e-02 -5.408094e-02 -0.9985 61.4404 83.2624)" fill="#FFF9F0" cx="29.6" cy="42.5" rx="0.3" ry="0.3"/>
		</g>
		<path opacity="0.2" fill="#A09D98" d="M28.4,45.4c-0.3,0-1.5,0.5-1.5,0.5s1.2-0.3,1.5-0.3c0.4,0,1.4,0.3,1.4,0.3
			S28.8,45.4,28.4,45.4z"/>
		<path fill="#F5F5F5" d="M28.9,45.5l1.8,0.7c0,0,0.2-2.2,0.1-4.1L28.9,45.5z"/>
		<path fill="#F5F5F5" d="M27.9,45.5l-1.8,0.7c0,0-0.3-2.2-0.2-4.1L27.9,45.5z"/>
	</g>
	<g>
		<path fill="#FFC38F" d="M35.4,30.8c-0.2-5.2-4.1-7.4-7.9-7c-3.8,0.5-6.8,3.5-6.3,8.8c0.5,5.3,4.1,8.5,7.9,8.4
			C32,41.1,35.6,36.3,35.4,30.8z"/>
		<path fill="#FFC38F" d="M20,34.2c0.5,0.1,1,0.1,1.5,0.1c0,0,0,0,0,0c0.2-0.4-0.2-2.1-0.3-2.5c-0.3-0.9-0.8-1.5-1.7-1.2
			C17.7,31.1,18.5,33.8,20,34.2z"/>
		<path opacity="0.6" fill="#E8C2AC" d="M22.5,29.9c0,0.1,0,0.3,0,0.4c0,0.6,0.6,1.6,0.5,2.3c-0.2,1.2-1,1.9,0,3
			c-1.1,0.6-2.2,0-2.3-0.7c-0.2-1.8,0.7-2-0.1-2.9c-1.8-1.7-0.3-1.9-0.2-2.9c0.1-1.1,1.1-2.1,1.7-3c0.8-1.2,2.3-1.8,3.7-2.1
			c2-0.5,4.2-0.5,6.2-0.3c1,0.1,2.4,0.2,2.9,1.1c0.4,0.8,0.8,2.4,0.5,3.3c-0.2,0.6-1.2,0.2-1.7,0.3c-0.7,0.1-1.3,0.5-1.8,1.1
			c-0.8,1.1-1.3,1.9-3.2,1.9c-1.2,0-2.6-1.7-1.6-2.7c-0.3-0.1-0.6,0-0.8,0.2c-0.8,0.3-3.6,1.4-3.4-0.6
			C22.8,28.7,22.6,29.3,22.5,29.9z"/>
		<path opacity="0.6" fill="#E8C2AC" d="M21.1,33.6c0.8-0.4,0.2-1.9-0.4-2.2c-0.5-0.2-1.7,0-1.2,0.9c0.4-0.7,0.9-0.2,0.7,0.3
			c-0.1,0.4-0.5,0.3-0.1,0.8C20.3,33.8,20.8,33.8,21.1,33.6z"/>
		<path fill="#381D18" d="M32.2,28.3c0.4-0.2,0.9-0.3,1.5-0.3c1.2,0,1.6-0.9,1.5-2c-0.1-3.1-3.1-4.6-5.8-4.9
			c-0.8-0.1-1.5-0.3-2.3-0.3c-1.3,0-2.6,0.5-3.8,1.1c-1.7,0.9-2.9,3-3.4,4.9c-0.3,1.1-0.5,2.3-0.2,3.4c0.2,1,1.5,1.4,1.6,2.4
			c0,0.5-0.4,0.8-0.4,1.2c0,0.4,0.2,0.8,0.4,1c0.2,0.2,0.8,0.3,1.1,0.3c-0.7-0.8,0-1.3,0-2c0-0.5-0.1-1.6-0.3-2.1
			c-0.5-1.3-0.2-2.8,0.9-3.7c0.1,1.4,1.6,1.4,2.6,1.2c0.5-0.1,1.8-0.6,2.1,0.1c0.1,0.4-0.6,0.8-0.7,0.3c0,0.8,0,1.4,0.9,1.6
			c1.4,0.3,2.4-0.2,3.2-1.4C31.6,28.8,31.8,28.5,32.2,28.3z"/>
		<path fill="#593A2F" d="M33.6,26.7c-0.5,0.7-1.3,1.2-2.2,1.6c-0.4,0.2-0.7,0.4-1.1,0.7c-0.5,0.3-1.4,0.7-2,0.4
			c0.7-0.5,0.3-1.4-0.4-1.6c-0.8-0.2-1.7,0.4-2.5,0.1c-2.7-0.9,1.2-1.6,1.9-2.1c0.7-0.5,0.9-1.2,0.9-2c0-0.2-0.7-1.5-1.1-1.9
			c0.4-0.4,0.9-0.8,1.5-0.9c1.6-0.4,3.8,0.3,4.8,1.7C34.5,24.2,34.4,25.6,33.6,26.7z"/>
		<path fill="#593A2F" d="M21.4,29.1c-0.2,0.5,0,1.3,0.2,1.8c-0.8-0.1-1.9-1.1-2.2-1.8c-0.4-0.8,0.1-1.5,0.6-2.2
			c1.5-2.1,0.8-5.1,4.2-5.3c1.8-0.1,2.4,1.4,1.5,2.8C24.6,26.2,22,26.9,21.4,29.1z"/>
	</g>
	<g>
		<path fill="#FF7752" d="M34.2,34c0,0.1,0.1,0.1,0.1,0.2c0.1,0.9-1.7,0.5-1.9,0.1c-0.3-0.7,0.3-0.8,0.8-0.8
			C33.5,33.5,34,33.6,34.2,34z"/>
		<path fill="#FF7752" d="M25.4,33.9c0.1,0.1,0.1,0.2,0.1,0.3c0.3,1-1.8,0.9-2,0.5c-0.5-0.7,0.2-1,0.7-1.1
			C24.6,33.5,25.2,33.5,25.4,33.9z"/>
		<path fill="#261B18" d="M35,30.2c-0.5-0.7-2.6-0.7-3.3,0.1C32.6,30.4,33.5,30.1,35,30.2z"/>
		<path opacity="0.2" fill="#BA5124" d="M30.1,34.3c0.1,0.1-0.3,0.5-0.7,0.6c-0.4,0-0.9-0.4-0.7-0.6c0.2-0.1,0.4,0,0.7,0
			C29.8,34.3,30,34.1,30.1,34.3z"/>
		<path fill="#261B18" d="M22.7,30.1c0.8-0.7,3.1-0.8,3.8,0.1C25.2,30.2,24.6,30.1,22.7,30.1z"/>
		<g>
			<g opacity="0.7">
				<path fill="#F04D4D" d="M32.9,35.4c-1.1,0.2-2.1,0.1-3.7,0.1c-1.3,0-3.3,0.4-4.4-0.2c1.7,3,2.8,3.5,4.2,3.6
					c1.7,0.1,2.3-1.1,2.6-2C31.7,36.5,32.6,35.6,32.9,35.4z"/>
			</g>
			<path fill="#8F3935" d="M25.6,35.8c0,0,2.8,0.9,6.6,0c0,0-0.6,0.3-0.9,1c-0.3,0.7-1.2,1.1-2.5,1.1C26.6,37.8,25.6,35.8,25.6,35.8
				z"/>
			<path fill="#FFF9F0" d="M26.4,36c0,0,0.1,0.6,0.8,0.8c1,0.3,2,0.3,3.1,0.2c0.7-0.1,1.1-1,1.1-1S29.3,36.4,26.4,36z"/>
			<path fill="#FFF9F0" d="M26.7,36.8c-0.1-0.2,0-0.4,0.3-0.2c0.5,0.3,1.3,0.4,2.3,0.4c0.9,0,1.4-0.3,1.5-0.1
				c0.2,0.2-0.6,1.1-2.2,0.9C27,37.7,26.7,36.8,26.7,36.8z"/>
			<path fill="#E8DAC5" d="M26.6,36.4c0,0,3.7-0.3,4.5,0.1c0,0,0.3-0.3,0.3-0.5c0,0-2.6,0.5-5,0C26.4,36,26.4,36.2,26.6,36.4z"/>
			<path fill="#E8DAC5" d="M27.3,36.8c0,0,1.2,0.5,2.9,0.2C30.2,37,28.6,37.6,27.3,36.8z"/>
		</g>
		<g>
			<path fill="#261B18" d="M25.1,33c-0.3-0.1-0.7-0.1-1,0c-0.7-0.5-0.2-2.4,0.8-2C25.7,31.3,25.7,32.6,25.1,33z"/>
		</g>
		<path opacity="0.7" fill="#F0DED1" d="M25.1,31.6c0.4-0.1,0.5,0.5,0.2,0.7C24.8,32.5,24.7,31.7,25.1,31.6z"/>
		<g>
			<path fill="#261B18" d="M33.6,31c0.5,0.3,0.5,1.4,0.1,1.9c-0.3,0-0.6,0-0.9,0.1C31.7,32.7,32.6,30.4,33.6,31z"/>
		</g>
		<path opacity="0.7" fill="#F0DED1" d="M33.5,31.5c0.3,0,0.4,0.6,0.1,0.7C33.2,32.4,33.2,31.5,33.5,31.5z"/>
		<path fill="#121B21" d="M35.8,31.3c0,0-0.9,0.9-2.3,0.2c-0.6-0.3-1.1,0.2-1.1,0.2s0.3-1.1,1.2-0.7C34.1,31.2,34.7,31.7,35.8,31.3z
			"/>
		<path fill="#121B21" d="M21.9,31.5c0,0,1.1,0.9,2.4,0.1c0.6-0.4,1.1,0.1,1.1,0.1s-0.2-1.1-1.2-0.6C23.9,31.3,23.1,31.8,21.9,31.5z
			"/>
	</g>
</g>
</svg>
